# xmcd
#
# Track frame offsets:
#	150
#	16429
#	40979
#	72411
#	95267
#	118807
#	141121
#	158980
#	174078
#	193258
#	221628
#	244032
#	265437
#	287711
#
# Disc length: 4073 seconds
#
# Revision: 1
# Processed by: cddbd v1.5.1PL0 Copyright (c) Steve Scherf et al.
# Submitted via: EasyCDDAExtractor 5.0.6
#
DISCID=d20fe70e
DTITLE=Paul Camilleri - Another Sad Goodbye
DYEAR=2004
DGENRE=Blues
TTITLE0=Heart of stone
TTITLE1=Another sad goodbye
TTITLE2=Poor heart
TTITLE3=Mister P.C.
TTITLE4=Lady Luck
TTITLE5=Messin' with my heart
TTITLE6=Keep me movin'
TTITLE7=Let my guitar talk
TTITLE8=It's too late
TTITLE9=When the night comes
TTITLE10=All went wrong
TTITLE11=I can't wait until tonight
TTITLE12=Ain't givin' up
TTITLE13=Lady luck (Radio Edit)
EXTD=
EXTT0=
EXTT1=
EXTT2=
EXTT3=
EXTT4=
EXTT5=
EXTT6=
EXTT7=
EXTT8=
EXTT9=
EXTT10=
EXTT11=
EXTT12=
EXTT13=
PLAYORDER=
